<svg id="Layer_7_copy" data-name="Layer 7 copy" xmlns="http://www.w3.org/2000/svg" xmlns:xlink="http://www.w3.org/1999/xlink" viewBox="0 0 324.52 85.54"><defs><style>.cls-1,.cls-8{fill:none;}.cls-2,.cls-3,.cls-6{fill:#00447c;}.cls-2,.cls-3{stroke:#00447c;}.cls-2,.cls-3,.cls-6,.cls-8{stroke-miterlimit:10;}.cls-3{stroke-width:1.58px;}.cls-4{fill:#231f20;}.cls-5{fill:#fff;}.cls-6,.cls-8{stroke:#fff;stroke-width:3.18px;}.cls-7{clip-path:url(#clip-path);}</style><clipPath id="clip-path" transform="translate(-34.87 -70.51)"><circle class="cls-1" cx="60.77" cy="108.62" r="22.31"/></clipPath></defs><title>FlexfabLogoTag_4c</title><path class="cls-2" d="M105.28,130.23H99.39V85.9c0-9.25,6.35-14.45,15.21-14.45h16.9V77H114.6q-4.57,0-6.42,1.84c-1.91,2.06-2.9,4-2.9,6.11V97.59h19.64v5.58H105.28Z" transform="translate(-34.87 -70.51)"/><path class="cls-3" d="M143.42,130.23h-5.81V71.3h5.81Z" transform="translate(-34.87 -70.51)"/><path class="cls-3" d="M194,115.93a22.1,22.1,0,0,1-8.26,11.16,22.52,22.52,0,0,1-12.92,4.21A21.69,21.69,0,0,1,157,124.8,22.79,22.79,0,0,1,156.87,92a21.35,21.35,0,0,1,16.89-6.57,22.47,22.47,0,0,1,15.13,7.18,20.83,20.83,0,0,1,6.2,14.68v3.13H156a16,16,0,0,0,5.58,10.85,16.73,16.73,0,0,0,11.54,4.21c6.88-.08,11.77-3.29,14.75-9.56Zm-4.67-10.85a17,17,0,0,0-5.73-9.86A17,17,0,0,0,156,105.08Z" transform="translate(-34.87 -70.51)"/><path class="cls-3" d="M233.53,130.23h-7.26L214.8,112.8l-11.39,17.43h-6.87L211.21,108,196.38,86.66H203l11.77,16.59,11.39-16.59h7.19l-15.14,21.48Z" transform="translate(-34.87 -70.51)"/><path class="cls-3" d="M246.06,130.23h-5.88V85.82c0-9.25,6.34-14.52,15.28-14.52H257v5.19l-1.53.08c-3.05.15-5.19.84-6.49,2.14-1.91,2.06-2.91,4.05-2.91,6.12v1.83H257V92H246.06Z" transform="translate(-34.87 -70.51)"/><path class="cls-3" d="M302.7,130.23H297v-6.81q-7.11,8.14-17.42,7.8a21.53,21.53,0,0,1-15.37-7,23,23,0,0,1,.46-32.17A20.84,20.84,0,0,1,281,85.59a21.8,21.8,0,0,1,15.59,7,20.78,20.78,0,0,1,6.12,15.75v21.86ZM263.79,108a16.94,16.94,0,0,0,4.51,12.08,16,16,0,0,0,11.39,5.43,15.19,15.19,0,0,0,12.23-5,17.15,17.15,0,0,0,5-12.61A16.94,16.94,0,0,0,292,96.14a15.16,15.16,0,0,0-11.39-4.89,16,16,0,0,0-11.85,4.89A16.43,16.43,0,0,0,263.79,108Z" transform="translate(-34.87 -70.51)"/><path class="cls-3" d="M308.66,108.06V71.3h5.73v22a21.31,21.31,0,0,1,16.05-7.72,20.78,20.78,0,0,1,16.21,6.5,22.9,22.9,0,0,1,.53,32.17,21.67,21.67,0,0,1-15.44,7,22.71,22.71,0,0,1-23.08-22.85Zm34.39,12A16.8,16.8,0,0,0,347.64,108a16.46,16.46,0,0,0-5.05-11.77,15.82,15.82,0,0,0-11.77-5,15.12,15.12,0,0,0-11.38,4.89,17.6,17.6,0,0,0,0,24.38,15.39,15.39,0,0,0,12.22,5A15.85,15.85,0,0,0,343.05,120.06Z" transform="translate(-34.87 -70.51)"/><path class="cls-4" d="M98.09,142.79h6.59v1H99.34v3.37h4.2v1h-4.2v3.91h5.48v1.08H98.09Z" transform="translate(-34.87 -70.51)"/><path class="cls-4" d="M107,145.48h1v1.43a2.75,2.75,0,0,1,2.49-1.64c1.63,0,2.5,1,2.5,3v4.87H112v-5c0-1.27-.59-2-1.59-2a2.42,2.42,0,0,0-2.21,2.7v4.25H107Z" transform="translate(-34.87 -70.51)"/><path class="cls-4" d="M115.94,148a2.7,2.7,0,0,1,2.85-2.68,3.36,3.36,0,0,1,1.66.42,1.46,1.46,0,0,1,1.63-1.33l.48,0v.85h-.39a1,1,0,0,0-1.15.9,2.76,2.76,0,0,1,.68,1.78c0,1.48-1.1,2.54-2.93,2.54a3.33,3.33,0,0,1-1.14-.19c-.52.15-.79.4-.79.73,0,.5.34.78,1,.81l2.35.12c1.67.09,2.54.75,2.54,1.9,0,1.35-1.32,2.17-3.81,2.17s-3.58-.76-3.58-2a1.59,1.59,0,0,1,1.27-1.56,1.27,1.27,0,0,1-.82-1.23c0-.61.39-1,1.19-1.33A2.25,2.25,0,0,1,115.94,148Zm.53,5.9c0,.87.86,1.29,2.6,1.29s2.5-.44,2.5-1.22-.57-.94-1.74-1l-2.56-.14A1.12,1.12,0,0,0,116.47,153.9Zm.64-6a1.72,1.72,0,0,0,3.44,0,1.72,1.72,0,1,0-3.44,0Z" transform="translate(-34.87 -70.51)"/><path class="cls-4" d="M124.4,142.79h1.14v1.14H124.4Zm0,2.69h1.14v7.7H124.4Z" transform="translate(-34.87 -70.51)"/><path class="cls-4" d="M128.62,145.48h1v1.43a2.75,2.75,0,0,1,2.49-1.64c1.63,0,2.5,1,2.5,3v4.87h-1.11v-5c0-1.27-.59-2-1.59-2a2.42,2.42,0,0,0-2.21,2.7v4.25h-1.13Z" transform="translate(-34.87 -70.51)"/><path class="cls-4" d="M140.54,153.39c-2.07,0-3.44-1.56-3.44-4.06s1.42-4.06,3.44-4.06,3.4,1.5,3.4,4v.16h-5.6v.05c0,1.87.9,2.95,2.29,2.95a2.22,2.22,0,0,0,2.11-1.5l1.09.19A3.26,3.26,0,0,1,140.54,153.39Zm2.16-4.81c-.06-1.49-.86-2.35-2.1-2.35s-2,.83-2.25,2.35Z" transform="translate(-34.87 -70.51)"/><path class="cls-4" d="M149.34,153.39c-2.06,0-3.44-1.56-3.44-4.06s1.42-4.06,3.44-4.06,3.4,1.5,3.4,4v.16h-5.6v.05c0,1.87.9,2.95,2.29,2.95a2.22,2.22,0,0,0,2.11-1.5l1.1.19A3.28,3.28,0,0,1,149.34,153.39Zm2.16-4.81c-.06-1.49-.85-2.35-2.1-2.35s-2.05.83-2.24,2.35Z" transform="translate(-34.87 -70.51)"/><path class="cls-4" d="M155.24,145.48h1.1v1.73c.46-1.31,1.18-2,2.24-2l.42,0v1.15h-.19c-1.47,0-2.41,1.1-2.41,2.88v3.86h-1.16Z" transform="translate(-34.87 -70.51)"/><path class="cls-4" d="M160.87,142.79H162v1.14h-1.14Zm0,2.69H162v7.7h-1.14Z" transform="translate(-34.87 -70.51)"/><path class="cls-4" d="M165.1,145.48h1v1.43a2.76,2.76,0,0,1,2.49-1.64c1.63,0,2.5,1,2.5,3v4.87H170v-5c0-1.27-.58-2-1.59-2a2.43,2.43,0,0,0-2.21,2.7v4.25H165.1Z" transform="translate(-34.87 -70.51)"/><path class="cls-4" d="M174,148a2.7,2.7,0,0,1,2.85-2.68,3.31,3.31,0,0,1,1.66.42,1.46,1.46,0,0,1,1.63-1.33l.48,0v.85h-.39a1,1,0,0,0-1.15.9,2.78,2.78,0,0,1,.69,1.78c0,1.48-1.11,2.54-2.94,2.54a3.33,3.33,0,0,1-1.14-.19c-.52.15-.79.4-.79.73,0,.5.35.78,1,.81l2.35.12c1.68.09,2.54.75,2.54,1.9,0,1.35-1.31,2.17-3.81,2.17-2.35,0-3.58-.76-3.58-2a1.59,1.59,0,0,1,1.27-1.56,1.27,1.27,0,0,1-.82-1.23c0-.61.39-1,1.2-1.33A2.24,2.24,0,0,1,174,148Zm.53,5.9c0,.87.87,1.29,2.6,1.29s2.5-.44,2.5-1.22-.57-.94-1.73-1l-2.56-.14C174.78,153.09,174.53,153.4,174.53,153.9Zm.64-6a1.72,1.72,0,1,0,1.72-1.74A1.64,1.64,0,0,0,175.17,147.94Z" transform="translate(-34.87 -70.51)"/><path class="cls-4" d="M188,146.32h-1.34v-.84H188v-1.82l1.16-.12v1.94H191v.84h-1.82v4c0,1.44.13,2.05,1.3,2.05a2.82,2.82,0,0,0,.79-.09v1a4.43,4.43,0,0,1-1,.12,2.15,2.15,0,0,1-2-.91,4,4,0,0,1-.32-2.16Z" transform="translate(-34.87 -70.51)"/><path class="cls-4" d="M193.24,145.48h1.1v1.73c.46-1.31,1.18-2,2.24-2l.42,0v1.15h-.19c-1.47,0-2.41,1.1-2.41,2.88v3.86h-1.16Z" transform="translate(-34.87 -70.51)"/><path class="cls-4" d="M204.8,153.18h-1.05v-1.42a2.75,2.75,0,0,1-2.48,1.63c-1.63,0-2.5-1-2.5-3v-4.87h1.11v5c0,1.29.58,2,1.58,2a2.42,2.42,0,0,0,2.23-2.69v-4.26h1.11Z" transform="translate(-34.87 -70.51)"/><path class="cls-4" d="M208.16,151a2.14,2.14,0,0,0,2.18,1.48c1.08,0,1.74-.55,1.74-1.3,0-.94-.81-1-2.22-1.37-1.67-.41-2.45-.9-2.45-2.19s1.08-2.31,2.75-2.31a2.68,2.68,0,0,1,2.79,1.95l-1.07.23a1.65,1.65,0,0,0-1.76-1.22c-1,0-1.56.48-1.56,1.22,0,1,.87,1,2.35,1.34s2.37,1,2.37,2.2c0,1.38-1.17,2.4-2.94,2.4a3,3,0,0,1-3.22-2.22Z" transform="translate(-34.87 -70.51)"/><path class="cls-4" d="M216,146.32h-1.35v-.84H216v-1.82l1.15-.12v1.94h1.83v.84h-1.83v4c0,1.44.13,2.05,1.3,2.05a2.82,2.82,0,0,0,.79-.09v1a4.41,4.41,0,0,1-.95.12,2.16,2.16,0,0,1-2-.91,4.1,4.1,0,0,1-.31-2.16Z" transform="translate(-34.87 -70.51)"/><path class="cls-4" d="M221.56,151.38h1.67v1.8h-1.67Z" transform="translate(-34.87 -70.51)"/><path class="cls-4" d="M234.28,142.79h1.49l3.39,10.39h-1.25l-1-3.1H233l-1,3.1h-1.18Zm2.29,6.29L234.93,144l-1.62,5.11Z" transform="translate(-34.87 -70.51)"/><path class="cls-4" d="M241.22,145.48h1.09v1.73c.46-1.31,1.18-2,2.24-2l.42,0v1.15h-.19c-1.47,0-2.41,1.1-2.41,2.88v3.86h-1.15Z" transform="translate(-34.87 -70.51)"/><path class="cls-4" d="M246.26,149.33c0-2.48,1.41-4.06,3.44-4.06s3.48,1.58,3.48,4.06-1.43,4.06-3.48,4.06S246.26,151.8,246.26,149.33Zm5.66,0c0-2-.88-3.1-2.22-3.1s-2.2,1.13-2.2,3.1.89,3.1,2.2,3.1S251.92,151.28,251.92,149.33Z" transform="translate(-34.87 -70.51)"/><path class="cls-4" d="M261.65,153.18h-1v-1.42a2.74,2.74,0,0,1-2.48,1.63c-1.63,0-2.5-1-2.5-3v-4.87h1.11v5c0,1.29.58,2,1.58,2a2.42,2.42,0,0,0,2.23-2.69v-4.26h1.11Z" transform="translate(-34.87 -70.51)"/><path class="cls-4" d="M264.69,145.48h1.05v1.43a2.75,2.75,0,0,1,2.49-1.64c1.63,0,2.5,1,2.5,3v4.87h-1.11v-5c0-1.27-.59-2-1.59-2a2.42,2.42,0,0,0-2.21,2.7v4.25h-1.13Z" transform="translate(-34.87 -70.51)"/><path class="cls-4" d="M279.56,153.18h-1v-1.53a2.62,2.62,0,0,1-2.38,1.71c-1.66,0-3-1.54-3-4s1.33-4.07,3-4.07a2.51,2.51,0,0,1,2.23,1.37v-3.89h1.11Zm-3.13-6.89c-1.17,0-2,1.1-2,3s.79,3,2,3a2.19,2.19,0,0,0,2-2.47v-1.18C278.45,147.19,277.64,146.29,276.43,146.29Z" transform="translate(-34.87 -70.51)"/><path class="cls-4" d="M288.2,146.32h-1.35v-.84h1.35v-1.82l1.15-.12v1.94h1.83v.84h-1.83v4c0,1.44.14,2.05,1.3,2.05a2.93,2.93,0,0,0,.8-.09v1a4.59,4.59,0,0,1-1,.12,2.18,2.18,0,0,1-2-.91,4.1,4.1,0,0,1-.31-2.16Z" transform="translate(-34.87 -70.51)"/><path class="cls-4" d="M293.44,142.79h1.12v4.06a2.62,2.62,0,0,1,2.41-1.58c1.63,0,2.5,1,2.5,3v4.87h-1.11v-5c0-1.27-.58-2-1.58-2a2.43,2.43,0,0,0-2.22,2.7v4.25h-1.12Z" transform="translate(-34.87 -70.51)"/><path class="cls-4" d="M305.36,153.39c-2.07,0-3.45-1.56-3.45-4.06s1.43-4.06,3.45-4.06,3.4,1.5,3.4,4v.16h-5.6v.05c0,1.87.9,2.95,2.29,2.95a2.22,2.22,0,0,0,2.11-1.5l1.09.19A3.26,3.26,0,0,1,305.36,153.39Zm2.15-4.81c-.06-1.49-.85-2.35-2.09-2.35s-2.05.83-2.25,2.35Z" transform="translate(-34.87 -70.51)"/><path class="cls-4" d="M313.29,145.48h1.14l1.71,6.2,1.6-6.2h.88l1.71,6.2,1.79-6.2h1l-2.33,7.7h-1l-1.66-6.09-1.55,6.09h-1Z" transform="translate(-34.87 -70.51)"/><path class="cls-4" d="M324.49,149.33c0-2.48,1.41-4.06,3.45-4.06s3.47,1.58,3.47,4.06-1.42,4.06-3.47,4.06S324.49,151.8,324.49,149.33Zm5.66,0c0-2-.88-3.1-2.21-3.1s-2.2,1.13-2.2,3.1.88,3.1,2.2,3.1S330.15,151.28,330.15,149.33Z" transform="translate(-34.87 -70.51)"/><path class="cls-4" d="M333.91,145.48H335v1.73c.47-1.31,1.19-2,2.25-2l.42,0v1.15h-.2c-1.46,0-2.41,1.1-2.41,2.88v3.86h-1.15Z" transform="translate(-34.87 -70.51)"/><path class="cls-4" d="M339.54,142.79h1.14v10.39h-1.14Z" transform="translate(-34.87 -70.51)"/><path class="cls-4" d="M349.61,153.18h-1v-1.53a2.6,2.6,0,0,1-2.38,1.71c-1.66,0-3-1.54-3-4s1.33-4.07,3-4.07a2.53,2.53,0,0,1,2.23,1.37v-3.89h1.1Zm-3.12-6.89c-1.17,0-2,1.1-2,3s.79,3,2,3a2.2,2.2,0,0,0,2-2.47v-1.18C348.51,147.19,347.7,146.29,346.49,146.29Z" transform="translate(-34.87 -70.51)"/><path class="cls-4" d="M353,151.38h1.68v1.8H353Z" transform="translate(-34.87 -70.51)"/><path class="cls-5" d="M82.87,109.51" transform="translate(-34.87 -70.51)"/><path class="cls-6" d="M86.23,110.2" transform="translate(-34.87 -70.51)"/><g class="cls-7"><circle class="cls-2" cx="25.91" cy="38.11" r="22.31"/><path class="cls-8" d="M86.23,109.88c-6-2.67-33.34-7.71-50.72,0" transform="translate(-34.87 -70.51)"/><path class="cls-8" d="M69.05,93.86H62.18c-9.64,0-10.24,3.74-10.24,11.11V134.7" transform="translate(-34.87 -70.51)"/></g><path class="cls-4" d="M358.13,92.32a3.94,3.94,0,0,1-5.58,0,3.83,3.83,0,0,1-1.14-2.8,3.93,3.93,0,0,1,3.93-3.93,3.84,3.84,0,0,1,2.79,1.15,4,4,0,0,1,0,5.58Zm-5.19-5.19a3.27,3.27,0,0,0-1,2.4,3.31,3.31,0,0,0,1,2.42,3.38,3.38,0,0,0,4.8,0,3.31,3.31,0,0,0,1-2.42,3.39,3.39,0,0,0-5.79-2.4Zm2.32.22a3.13,3.13,0,0,1,1.18.16,1.06,1.06,0,0,1,.67,1.09,1,1,0,0,1-.42.86,1.94,1.94,0,0,1-.62.21,1,1,0,0,1,.74.42,1.15,1.15,0,0,1,.23.67v.32c0,.1,0,.2,0,.32a.74.74,0,0,0,0,.22l0,.06h-.71v0s0,0,0,0V91.1a1.08,1.08,0,0,0-.41-1,1.89,1.89,0,0,0-.85-.13h-.6v1.7h-.76V87.35Zm.83.68a2,2,0,0,0-.93-.16h-.65v1.57h.69a2,2,0,0,0,.73-.1.67.67,0,0,0,.44-.68A.66.66,0,0,0,356.09,88Z" transform="translate(-34.87 -70.51)"/><path class="cls-4" d="M355.51,142v.43H354.3v3.16h-.49v-3.16H352.6V142Z" transform="translate(-34.87 -70.51)"/><path class="cls-4" d="M356,142h.69l1,3,1-3h.69v3.59h-.46v-2.48c0-.17,0-.35,0-.54l-1,3h-.48l-1-3V143c0,.18,0,.31,0,.39v2.12H356Z" transform="translate(-34.87 -70.51)"/></svg>