<svg width="135" height="68" viewBox="0 0 135 68" xmlns="http://www.w3.org/2000/svg">
<path fill-rule="evenodd" clip-rule="evenodd" d="M61.5641 39.0018C64.2406 39.3284 66.2461 38.0161 67.6516 36.0872C67.3622 36.5575 67.0066 37.0754 66.5548 37.6669C65.4295 39.1396 64.2096 40.2699 62.666 41.2147C62.2393 41.4753 61.3901 41.8588 61.1299 42.1077C67.0626 42.8311 69.7023 35.5083 69.8052 31.2303C69.8822 30.9146 69.9491 30.6021 70.0051 30.2947C70.0227 33.0406 69.5893 36.2877 68.4272 37.6452C69.3885 36.9368 71.9018 34.3471 72.9845 33.368C76.6825 30.0257 77.9952 25.1914 75.5881 20.5217C74.3415 18.1033 73.3216 17.3456 71.0091 16.0232C69.1526 14.9615 67.0911 14.0468 64.9417 13.1354C62.6794 12.1764 60.7768 11.5532 58.7664 10.3661C55.9293 8.69036 51.1193 4.65552 51.0917 0C50.7429 0.241422 50.5253 0.602298 50.2927 1.01831C46.378 8.02874 57.488 12.9992 62.5363 14.7259C60.3594 14.5146 56.2614 12.7143 54.5362 11.6893C52.197 10.3001 50.2701 8.65862 49.0344 6.10739C47.8698 7.19087 48.2028 9.9075 49.4393 11.6158C52.4178 15.7325 60.0322 17.6163 64.9191 18.7649C61.9532 18.8961 55.3319 17.3106 52.4931 15.7467C50.4224 14.6056 50.0643 13.7435 49.5582 13.4971C48.3258 19.8893 60.2171 21.5484 65.9348 21.8892C63.1872 22.0479 58.4451 21.6102 55.639 21.0455C54.5747 20.8316 53.5992 20.4432 52.6078 20.2185C52.7584 23.4856 59.3688 24.0269 62.6777 23.9626L66.8819 23.798C66.7539 23.8908 66.9237 23.8331 66.5924 23.9467C65.6161 24.28 61.3232 24.5131 60.4071 24.4847L56.8713 24.26C57.8193 26.2966 62.5614 26.1655 64.9049 25.7821C65.7357 25.6451 66.7874 25.3218 67.5889 25.2349C65.6102 26.5982 62.2418 26.462 59.5804 26.6692C61.3508 27.1646 62.4142 27.6174 64.6271 27.2916C66.3147 27.0435 67.8047 26.041 69.3626 26.0444C69.3869 26.0753 69.4145 26.0861 69.4237 26.1446C69.4337 26.2022 69.4697 26.219 69.4806 26.2448C69.6881 26.7168 69.8453 27.5672 69.9307 28.6064C69.1032 30.7709 68.9936 31.932 66.9865 34.5593C65.8612 36.032 64.6414 37.1631 63.0969 38.1071C62.6744 38.3686 61.8243 38.752 61.5641 39.0018Z"/>
<path fill-rule="evenodd" clip-rule="evenodd" d="M78.0994 22.7922C78.4383 23.9183 80.3868 21.6878 80.8938 21.1599C81.8995 20.1115 85.5456 19.8082 86.6826 19.7974C84.9006 18.7515 82.7294 19.368 81.2795 17.4776C78.788 14.9982 75.5652 16.085 73.876 17.9521C75.5769 16.643 77.8074 15.2964 80.3793 18.1835C79.5301 17.9754 78.7428 17.8836 78.4516 18.6888C78.4742 18.9069 78.5897 19.1516 78.7294 19.2619C78.998 19.4749 79.1193 19.3847 79.5259 19.6236C79.5577 19.642 79.5978 19.6746 79.6238 19.6905C79.6506 19.708 79.6924 19.7356 79.7225 19.7631C78.6474 20.124 77.8794 21.1841 78.0994 22.7922Z"/>
<path fill-rule="evenodd" clip-rule="evenodd" d="M0 54.7008H2.54427L6.49077 64.7495L10.4197 54.7008H12.9079L7.46379 67.8696H5.44327L0 54.7008ZM20.5783 54.7008H30.2693V56.7742H22.8607V60.1357H29.4276V62.2083H22.8607V65.7018H30.3622V67.7743H20.5783V54.7008ZM44.1979 61.1824C45.0237 61.1824 45.6822 60.9869 46.1682 60.591C46.6577 60.1984 46.9012 59.6637 46.9012 58.9879V58.9503C46.9012 58.2369 46.6644 57.6956 46.1867 57.3289C45.7131 56.9588 45.0421 56.775 44.1787 56.775H40.8204V61.1824H44.1979ZM38.5388 54.7008H44.3753C45.1977 54.7008 45.9281 54.8161 46.564 55.0466C47.1998 55.2764 47.7303 55.5971 48.1536 56.0081C48.5025 56.3699 48.7711 56.7867 48.9577 57.2595C49.1442 57.7323 49.2379 58.2553 49.2379 58.8283V58.866C49.2379 59.4014 49.1601 59.8843 49.0037 60.3128C48.8481 60.743 48.633 61.1223 48.3586 61.4523C48.0842 61.7822 47.7571 62.0621 47.3764 62.2926C46.9965 62.5232 46.5749 62.7003 46.1139 62.8256L49.6496 67.7752H46.9371L43.7102 63.2182H43.6733H40.8204V67.7752H38.538V54.7008H38.5388ZM60.7085 56.8301H56.5553V54.7008H67.1808V56.8301H63.0277V67.776H60.7085V56.8301ZM75.17 54.7008H77.4524V67.7752H75.17V54.7008ZM92.4938 67.9999C91.5341 67.9999 90.6481 67.8253 89.8374 67.477C89.0267 67.1286 88.3222 66.6524 87.7274 66.0476C87.1317 65.4437 86.664 64.7311 86.3235 63.9091C85.9838 63.0871 85.8165 62.2091 85.8165 61.276V61.2384C85.8165 60.3045 85.9813 59.4298 86.3151 58.6137C86.6489 57.7975 87.1166 57.0816 87.7182 56.4659C88.3206 55.8494 89.0342 55.3641 89.8575 55.009C90.6808 54.654 91.591 54.4761 92.5892 54.4761C93.1882 54.4761 93.7329 54.5262 94.2257 54.6256C94.7185 54.7259 95.1702 54.8654 95.5819 55.0466C95.9935 55.2271 96.3742 55.4426 96.7231 55.6907C97.072 55.9405 97.4024 56.2136 97.7145 56.5127L96.2361 58.2119C95.7124 57.7265 95.1577 57.3339 94.572 57.0356C93.9864 56.7374 93.3187 56.5879 92.5699 56.5879C91.9466 56.5879 91.3693 56.7099 90.8397 56.9521C90.3093 57.1952 89.8508 57.5252 89.4643 57.9429C89.0777 58.3597 88.779 58.8484 88.5665 59.4089C88.3549 59.9695 88.2486 60.5676 88.2486 61.2016V61.2392C88.2486 61.8741 88.3549 62.4748 88.5665 63.0411C88.779 63.6084 89.0777 64.1029 89.4643 64.5256C89.8508 64.9491 90.3093 65.2824 90.8397 65.5247C91.3702 65.7678 91.9466 65.8897 92.5699 65.8897C93.3681 65.8897 94.0533 65.7369 94.6281 65.432C95.202 65.1271 95.7685 64.7135 96.3298 64.1898L97.8082 65.6842C97.4719 66.046 97.1188 66.3659 96.7507 66.6457C96.3834 66.9264 95.9868 67.1687 95.5626 67.3742C95.1385 67.5797 94.6741 67.7359 94.1696 67.8412C93.6626 67.9473 93.1045 67.9999 92.4938 67.9999ZM113.56 62.5833L111.296 57.3531L109.051 62.5833H113.56ZM110.267 54.6081H112.399L118.161 67.776H115.73L114.402 64.62H108.209L106.863 67.776H104.506L110.267 54.6081ZM125.833 54.7008H128.116V65.7026H135V67.7752H125.834V54.7008H125.833Z"/>
</svg>
